<?xml version="1.0" standalone="no"?>
<!DOCTYPE svg PUBLIC "-//W3C//DTD SVG 20010904//EN"
 "http://www.w3.org/TR/2001/REC-SVG-20010904/DTD/svg10.dtd">
<svg version="1.0" xmlns="http://www.w3.org/2000/svg"
 width="32.000000pt" height="32.000000pt" viewBox="0 0 32.000000 32.000000"
 preserveAspectRatio="xMidYMid meet">
<metadata>
Created by potrace 1.10, written by Peter Selinger 2001-2011
</metadata>
<g transform="translate(0.000000,32.000000) scale(0.100000,-0.100000)"
fill="#000000" stroke="none">
<path d="M20 232 c0 -21 29 -32 80 -32 60 0 80 -11 80 -45 0 -30 -19 -45 -55
-45 -30 0 -55 -15 -55 -32 0 -4 20 -8 44 -8 64 0 96 29 96 85 0 64 -31 85
-121 85 -38 0 -69 -4 -69 -8z"/>
<path d="M212 220 c20 -32 98 -23 98 12 0 4 -25 8 -55 8 -53 0 -55 -1 -43 -20z"/>
<path d="M60 161 c0 -17 40 -33 67 -26 13 3 23 11 20 18 -4 15 -87 22 -87 8z"/>
<path d="M230 150 c0 -24 22 -26 44 -4 22 21 20 24 -14 24 -23 0 -30 -4 -30
-20z"/>
</g>
</svg>
